<svg width="374" height="374" viewBox="0 0 374 374" fill="none" xmlns="http://www.w3.org/2000/svg">
      <circle cx="187" cy="187" r="187" fill="#E1F51F" />
      <path
        d="M253 295C272.882 295 289 278.882 289 259C289 239.118 272.882 223 253 223C233.118 223 217 239.118 217 259C217 278.882 233.118 295 253 295Z"
        fill="#052C29"
      />
      <path
        d="M120 151C139.882 151 156 134.882 156 115C156 95.1178 139.882 79 120 79C100.118 79 84 95.1178 84 115C84 134.882 100.118 151 120 151Z"
        fill="#052C29"
      />
      <path
        d="M289 115.033C289 133.147 275.686 148.128 258.162 150.674C256.791 150.674 255.519 150.772 254.246 151.065C236.82 153.611 223.408 168.592 223.408 186.706V187.098C223.408 205.408 209.8 220.487 192.178 222.837H191.787C191.787 222.837 190.905 222.837 190.514 222.837C189.339 222.837 188.164 222.935 186.989 223.131C186.892 223.131 186.696 223.131 186.598 223.131C170.053 225.578 157.13 239.189 155.956 256.03C155.956 256.911 155.858 257.792 155.858 258.772V259.163C155.858 260.142 155.858 261.024 155.956 262.003C154.389 280.509 138.921 295 120.027 295C100.153 295 84 278.844 84 258.967C84 241.147 96.9226 226.362 113.957 223.424C114.544 223.424 115.132 223.424 115.719 223.424C116.307 223.424 116.894 223.424 117.481 223.424C118.362 223.424 119.244 223.326 120.223 223.131C120.223 223.131 121.104 223.033 121.495 222.935C137.355 220.389 149.788 207.366 151.354 191.112C151.55 189.937 151.55 188.665 151.55 187.49V187.196C151.55 185.923 151.55 184.748 151.354 183.573C153.019 166.83 166.039 153.513 182.584 151.457C183.465 151.457 184.346 151.359 185.325 151.163C203.045 148.911 216.751 133.832 216.751 115.424V115.131C216.947 95.1559 233.1 79 252.973 79C272.847 79 289 95.1559 289 114.935V115.033Z"
        fill="#052C29"
      />
    </svg>